<?xml version="1.0" encoding="UTF-8"?>
<svg id="Layer_2" data-name="Layer 2" xmlns="http://www.w3.org/2000/svg" viewBox="0 0 594.43 218.31">
  <g id="Layer_1-2" data-name="Layer 1">
    <g>
      <g id="Layer_2-2" data-name="Layer 2">
        <g id="uuid-f505115c-b13a-4835-9016-f79f735738f1" data-name="Layer 1-2">
          <path d="M84.29,35.55l-8.36-1.79c-3.83-.9-5.7-2.36-5.7-4.52,0-2.81,2.69-4.7,6.8-4.7,4.4,0,7.22,2.17,7.47,5.67h10.96c-.16-8.48-7.29-14.02-18.26-14.02s-18.42,5.46-18.42,13.78c0,6.44,4.24,10.76,12.52,12.64l8.07,1.79c3.91.94,5.39,2.16,5.39,4.36,0,2.85-2.74,4.64-7.26,4.64s-7.62-2.12-8.15-5.79h-11.66c.65,8.51,7.82,14.15,19.48,14.15s19.44-5.67,19.44-14.26c0-6.54-3.54-10-12.3-11.96Z"/>
          <path d="M109.61,0c-3.37.14-6,2.98-5.86,6.35.14,3.37,2.98,6,6.35,5.86,3.28-.13,5.86-2.82,5.87-6.1-.03-3.41-2.82-6.15-6.23-6.11-.04,0-.08,0-.13,0Z"/>
          <rect x="103.63" y="17.12" width="11.91" height="43.7"/>
          <path d="M148.99,35.55l-8.35-1.79c-3.83-.9-5.7-2.36-5.7-4.52,0-2.81,2.69-4.7,6.8-4.7,4.4,0,7.21,2.17,7.46,5.67h10.97c-.16-8.48-7.29-14.02-18.26-14.02s-18.42,5.46-18.42,13.78c0,6.44,4.24,10.76,12.52,12.64l8.07,1.79c3.91.94,5.38,2.16,5.38,4.36,0,2.85-2.73,4.64-7.25,4.64s-7.62-2.12-8.15-5.79h-11.66c.65,8.51,7.82,14.15,19.48,14.15s19.44-5.67,19.44-14.26c0-6.54-3.54-10-12.31-11.96Z"/>
          <rect x="168.33" y="17.12" width="11.91" height="43.7"/>
          <path d="M174.29,0c-3.41-.11-6.26,2.57-6.36,5.98,0,.05,0,.09,0,.14-.14,3.51,2.59,6.47,6.11,6.62,3.51.14,6.47-2.59,6.62-6.11.14-3.51-2.59-6.47-6.11-6.62-.08,0-.17,0-.25,0Z"/>
          <path d="M206.02,17.78c-9.26,0-15.37,5.09-16.18,12.97h3.06c1.02-6.41,5.7-10.11,13.09-10.11s11.94,4.45,11.94,11.78v3.79l-14.59,1.02c-9.79.77-15,4.93-15,12.22s5.74,12.07,14.02,12.07c7.13,0,13.44-4,15.6-9.75h.08v9.1h3.06v-28.69c.01-8.85-5.79-14.39-15.07-14.39ZM217.91,45.09c0,7.54-6.76,13.61-15.11,13.61-6.57,0-11.3-3.87-11.3-9.29s4.32-8.97,12.27-9.58l14.14-1.02v6.28Z"/>
          <path d="M262.03,29.54h-.08c-2.04-7.04-8.53-11.86-15.86-11.76-10.6,0-18.02,8.81-18.02,21.85s7.46,21.86,18.02,21.86c7.43.05,13.98-4.87,15.98-12.03h.12v11.38h2.97V2.04h-3.18l.04,27.5ZM246.53,58.62c-9.01,0-15.28-7.66-15.28-19.04s6.27-18.95,15.28-18.95,15.53,7.75,15.53,19-6.45,19-15.53,19Z"/>
          <polygon points="288.48 57.64 288.35 57.64 273.93 18.43 270.54 18.43 286.52 60.83 290.31 60.83 306.25 18.43 302.91 18.43 288.48 57.64"/>
          <path d="M327.36,17.78c-11.2,0-18.59,8.73-18.59,21.89s7.38,21.82,18.91,21.82c9.46,0,15.9-5.35,17.31-12.52h-3.18c-1.26,5.54-6.31,9.7-14.1,9.7-9.5,0-15.74-6.8-15.74-18.33v-.16h33.55v-1.8c.01-12.3-7.21-20.58-18.18-20.58ZM312.04,37.5c.46-10.1,6.49-16.92,15.28-16.92s14.93,6.92,14.97,16.92h-30.25Z"/>
          <path d="M355.82,26.79h-.08v-8.36h-2.97v42.4h3.18v-26.42c0-7.94,4.07-13.62,10.81-13.62,1.51-.05,3.02.25,4.4.86v-3.18c-1.26-.47-2.6-.7-3.95-.69-5.63,0-9.62,3.18-11.38,9.01Z"/>
          <path d="M383.37,51.08v-29.92h8.52v-2.73h-8.52V7.31h-3.14v11.12h-6.31v2.73h6.31v30.01c0,7.01,2.65,9.75,8.85,9.75.49,0,3.06,0,3.38-.08v-2.77h-2.93c-4.29,0-6.16-1.97-6.16-6.98Z"/>
          <path d="M401.63,3.06c-1.36-.01-2.47,1.08-2.49,2.44h0c.09,1.38,1.27,2.42,2.65,2.33,1.25-.08,2.25-1.08,2.33-2.33-.01-1.36-1.12-2.46-2.48-2.44,0,0,0,0-.01,0Z"/>
          <rect x="400.04" y="18.43" width="3.18" height="42.4"/>
          <path d="M430.62,38.6l-5.87-1.39c-6.81-1.59-9.67-3.95-9.67-8.07,0-5.02,4.77-8.65,11.34-8.65s11.33,3.79,12.22,10.07h3.06c-.77-7.87-6.65-12.8-15.21-12.8s-14.47,4.81-14.47,11.5c0,5.42,3.63,8.8,11.57,10.67l6.11,1.43c6.8,1.64,9.49,4,9.49,8.48,0,5.21-5.09,8.88-12.3,8.88s-12.37-3.99-13.15-9.85h-3.14c.65,7.37,7.29,12.6,16.18,12.6s15.57-4.9,15.57-11.82c0-5.96-3.31-9.06-11.74-11.06Z"/>
          <path d="M451.33,3.06c-1.36-.01-2.47,1.08-2.49,2.44h0c0,1.37,1.11,2.49,2.49,2.49s2.49-1.11,2.49-2.49c-.01-1.36-1.12-2.46-2.49-2.44,0,0,0,0,0,0Z"/>
          <rect x="449.74" y="18.43" width="3.18" height="42.4"/>
          <path d="M480.4,17.78c-7.22,0-12.76,4.07-14.68,9.87h-.08v-9.17h-2.97v42.35h3.18v-25.32c0-8.8,5.62-14.88,13.82-14.88s13.04,4.94,13.04,13.13v27.07h3.18v-27.5c0-9.52-6.15-15.55-15.48-15.55Z"/>
          <path d="M536.77,18.43v11.38h-.08c-1.99-7.11-8.47-12.03-15.86-12.03-10.68,0-17.94,8.77-17.94,21.81s7.21,21.78,17.9,21.78c7.29.05,13.71-4.77,15.7-11.78h.12v10.89c0,7.74-5.59,12.87-14.39,12.87-7.3,0-12.22-3.5-13.66-8.03h-3.26c1.18,5.99,7.58,10.8,16.75,10.8,10.85,0,17.69-6.27,17.69-15.77V18.43h-2.97ZM521.2,58.5c-9.01,0-15.12-7.58-15.12-18.87s6.11-19,15.12-19,15.41,7.75,15.41,18.95-6.36,18.91-15.41,18.91Z"/>
        </g>
      </g>
      <g>
        <path d="M43.93,218.31c-9.82,0-18.3-2.15-25.44-6.45-7.14-4.3-12.31-10.58-15.5-18.85-3.2-8.27-3.83-18.34-1.9-30.23,1.93-11.51,5.71-21.14,11.35-28.89,5.64-7.75,12.48-13.59,20.54-17.51,8.06-3.92,16.64-5.88,25.76-5.88,6.86,0,13.01.91,18.46,2.71,5.45,1.81,10.05,4.46,13.81,7.96,3.76,3.5,6.52,7.78,8.28,12.82,1.76,5.05,2.38,10.84,1.87,17.37h-28.47c.19-2.44.05-4.65-.42-6.62-.47-1.97-1.28-3.66-2.43-5.07-1.15-1.41-2.67-2.49-4.55-3.24-1.88-.75-4.11-1.13-6.69-1.13-5.03,0-9.5,1.23-13.42,3.7-3.92,2.47-7.19,6-9.8,10.6-2.61,4.61-4.45,10.08-5.53,16.42-.99,6.15-1.02,11.26-.11,15.33.92,4.06,2.71,7.11,5.39,9.13,2.68,2.02,6.18,3.03,10.5,3.03,2.86,0,5.5-.34,7.89-1.02s4.55-1.66,6.45-2.92,3.52-2.79,4.86-4.58c1.34-1.78,2.36-3.78,3.07-5.99h28.75c-1.08,4.46-3.03,9-5.85,13.6-2.82,4.6-6.45,8.86-10.89,12.75-4.44,3.9-9.67,7.04-15.68,9.41-6.01,2.37-12.78,3.56-20.29,3.56Z"/>
        <path d="M121.1,216.9h-30.72l52-105h39.04l17.19,105h-30.72l-10.29-76.11h-.85l-35.66,76.11ZM122.36,175.46h57.78l-3.66,21.28h-57.92l3.8-21.28Z"/>
        <path d="M310.59,111.9l-17.33,105h-23.82l-28.75-55.11h-.56l-9.16,55.11h-28.61l17.48-105h24.24l28.19,54.96h.85l9.02-54.96h28.47Z"/>
        <path d="M346.74,111.9l9.16,73.99h.85l33.82-73.99h32.13l-52,105h-38.9l-17.33-105h32.27Z"/>
        <path d="M420.87,216.9h-30.72l52-105h39.04l17.19,105h-30.72l-10.29-76.11h-.85l-35.66,76.11ZM422.14,175.46h57.78l-3.66,21.28h-57.92l3.8-21.28Z"/>
        <path d="M540.6,218.17c-9.12-.05-16.84-1.42-23.18-4.12-6.34-2.7-10.92-6.87-13.74-12.51-2.82-5.64-3.52-12.82-2.11-21.56h27.06c-.38,3.2-.02,5.9,1.06,8.1,1.08,2.21,2.83,3.88,5.25,5,2.42,1.13,5.44,1.69,9.06,1.69,3.1,0,5.74-.39,7.93-1.16,2.19-.77,3.91-1.83,5.18-3.17s2.02-2.85,2.26-4.54c.28-1.55.02-2.94-.78-4.16s-2.28-2.33-4.44-3.31c-2.16-.99-5.12-1.88-8.88-2.68l-10.01-2.26c-8.93-2.07-15.67-5.46-20.22-10.18-4.56-4.72-6.18-11.19-4.86-19.41,1.13-6.72,3.9-12.58,8.31-17.58,4.42-5,10.05-8.89,16.91-11.66,6.86-2.77,14.47-4.16,22.83-4.16s15.54,1.41,21.25,4.23c5.71,2.82,9.83,6.8,12.37,11.94s3.22,11.17,2.04,18.07h-27.34c.33-3.38-.48-6.04-2.43-7.96-1.95-1.93-5.23-2.89-9.83-2.89-2.91,0-5.36.34-7.33,1.02-1.97.68-3.5,1.62-4.58,2.82-1.08,1.2-1.76,2.6-2.04,4.19-.28,1.22-.25,2.34.11,3.35.35,1.01,1.05,1.91,2.08,2.71,1.03.8,2.42,1.53,4.16,2.18,1.74.66,3.8,1.25,6.2,1.76l8.17,1.83c5.59,1.22,10.29,2.84,14.09,4.86,3.8,2.02,6.81,4.38,9.02,7.08,2.21,2.7,3.65,5.74,4.34,9.13.68,3.38.69,7.07.04,11.06-1.18,6.91-3.86,12.75-8.07,17.55-4.2,4.79-9.68,8.43-16.42,10.92-6.74,2.49-14.55,3.76-23.43,3.8Z"/>
      </g>
    </g>
  </g>
</svg>